Roundo Latin-Bold.ufo
<glyph name="exclam" format="1">
  <advance width="310"/>
  <unicode hex="0021"/>
  <outline>
    <contour>
      <point x="50" y="688" type="line"/>
      <point x="50" y="478"/>
      <point x="80" y="363"/>
      <point x="80" y="234" type="curve"/>
      <point x="230" y="234" type="line"/>
      <point x="230" y="363"/>
      <point x="260" y="478"/>
      <point x="260" y="688" type="curve"/>
    </contour>
    <contour>
      <point x="155" y="-15" type="curve" smooth="yes"/>
      <point x="210" y="-15"/>
      <point x="255" y="29"/>
      <point x="255" y="84" type="curve" smooth="yes"/>
      <point x="255" y="139"/>
      <point x="210" y="184"/>
      <point x="155" y="184" type="curve" smooth="yes"/>
      <point x="100" y="184"/>
      <point x="56" y="139"/>
      <point x="56" y="84" type="curve" smooth="yes"/>
      <point x="56" y="29"/>
      <point x="100" y="-15"/>
    </contour>
  </outline>
</glyph>
<glyph name="quotedbl" format="1">
  <advance width="406"/>
  <unicode hex="0022"/>
  <outline>
    <contour>
      <point x="186" y="688" type="line"/>
      <point x="40" y="688" type="line"/>
      <point x="52" y="454" type="line"/>
      <point x="170" y="454" type="line"/>
    </contour>
    <contour>
      <point x="366" y="688" type="line"/>
      <point x="220" y="688" type="line"/>
      <point x="232" y="454" type="line"/>
      <point x="350" y="454" type="line"/>
    </contour>
  </outline>
</glyph>
<glyph name="ampersand" format="1">
  <advance width="811"/>
  <unicode hex="0026"/>
  <outline>
    <contour>
      <point x="287" y="295" type="curve"/>
      <point x="249" y="413" type="line"/>
      <point x="142" y="393"/>
      <point x="30" y="320"/>
      <point x="30" y="193" type="curve" smooth="yes"/>
      <point x="30" y="63"/>
      <point x="122" y="-10"/>
      <point x="249" y="-10" type="curve" smooth="yes"/>
      <point x="365" y="-10"/>
      <point x="474" y="44"/>
      <point x="534" y="156" type="curve"/>
      <point x="415" y="222" type="line"/>
      <point x="396" y="172"/>
      <point x="331" y="143"/>
      <point x="277" y="143" type="curve" smooth="yes"/>
      <point x="235" y="143"/>
      <point x="200" y="164"/>
      <point x="200" y="208" type="curve" smooth="yes"/>
      <point x="200" y="254"/>
      <point x="253" y="288"/>
    </contour>
    <contour>
      <point x="538" y="271" type="line"/>
      <point x="781" y="271" type="line"/>
      <point x="781" y="401" type="line"/>
      <point x="538" y="401" type="line"/>
    </contour>
    <contour>
      <point x="767" y="0" type="line"/>
      <point x="389" y="384" type="line" smooth="yes"/>
      <point x="339" y="434"/>
      <point x="317" y="461"/>
      <point x="317" y="488" type="curve"/>
      <point x="317" y="520"/>
      <point x="342" y="535"/>
      <point x="382" y="535" type="curve"/>
      <point x="444" y="535"/>
      <point x="517" y="504"/>
      <point x="559" y="474" type="curve"/>
      <point x="559" y="655" type="line"/>
      <point x="528" y="674"/>
      <point x="450" y="698"/>
      <point x="366" y="698" type="curve"/>
      <point x="226" y="698"/>
      <point x="139" y="618"/>
      <point x="139" y="508" type="curve"/>
      <point x="139" y="405"/>
      <point x="206" y="343"/>
      <point x="272" y="277" type="curve" smooth="yes"/>
      <point x="552" y="0" type="line" smooth="yes"/>
    </contour>
  </outline>
</glyph>
<glyph name="parenright" format="1">
  <advance width="354"/>
  <unicode hex="0029"/>
  <outline>
    <contour>
      <point x="10" y="719" type="curve"/>
      <point x="130" y="719" type="line"/>
      <point x="205" y="656"/>
      <point x="324" y="506"/>
      <point x="324" y="294" type="curve"/>
      <point x="324" y="82"/>
      <point x="205" y="-67"/>
      <point x="130" y="-130" type="curve"/>
      <point x="10" y="-130" type="line"/>
      <point x="60" y="-61"/>
      <point x="174" y="83"/>
      <point x="174" y="294" type="curve"/>
      <point x="174" y="505"/>
      <point x="60" y="650"/>
    </contour>
  </outline>
</glyph>
<glyph name="plus" format="1">
  <advance width="521"/>
  <unicode hex="002B"/>
  <outline>
    <contour>
      <point x="336" y="575" type="line"/>
      <point x="185" y="575" type="line"/>
      <point x="185" y="114" type="line"/>
      <point x="336" y="114" type="line"/>
    </contour>
    <contour>
      <point x="30" y="272" type="line"/>
      <point x="491" y="272" type="line"/>
      <point x="491" y="417" type="line"/>
      <point x="30" y="417" type="line"/>
    </contour>
  </outline>
</glyph>
<glyph name="hyphen" format="1">
  <advance width="335"/>
  <unicode hex="002D"/>
  <outline>
    <contour>
      <point x="40" y="333" type="line"/>
      <point x="40" y="333"/>
      <point x="40" y="198"/>
      <point x="40" y="198" type="curve"/>
      <point x="295" y="198" type="line"/>
      <point x="295" y="333" type="line"/>
    </contour>
  </outline>
</glyph>
<glyph name="slash" format="1">
  <advance width="492"/>
  <unicode hex="002F"/>
  <outline>
    <contour>
      <point x="152" y="0" type="line"/>
      <point x="482" y="688" type="line"/>
      <point x="342" y="688" type="line"/>
      <point x="10" y="0" type="line"/>
    </contour>
  </outline>
</glyph>
<glyph name="three" format="1">
  <advance width="607"/>
  <unicode hex="0033"/>
  <outline>
    <contour>
      <point x="30" y="226" type="line"/>
      <point x="73" y="189"/>
      <point x="171" y="140"/>
      <point x="267" y="140" type="curve"/>
      <point x="365" y="140"/>
      <point x="412" y="170"/>
      <point x="412" y="220" type="curve"/>
      <point x="412" y="271"/>
      <point x="367" y="284"/>
      <point x="297" y="284" type="curve"/>
      <point x="136" y="284" type="line"/>
      <point x="136" y="390" type="line"/>
      <point x="321" y="538" type="line"/>
      <point x="44" y="538" type="line"/>
      <point x="44" y="688" type="line"/>
      <point x="547" y="688" type="line"/>
      <point x="547" y="532" type="line"/>
      <point x="330" y="403" type="line"/>
      <point x="356" y="403" type="line"/>
      <point x="480" y="403"/>
      <point x="582" y="337"/>
      <point x="582" y="209" type="curve" smooth="yes"/>
      <point x="582" y="90"/>
      <point x="481" y="-10"/>
      <point x="288" y="-10" type="curve"/>
      <point x="172" y="-10"/>
      <point x="82" y="26"/>
      <point x="30" y="60" type="curve"/>
    </contour>
  </outline>
</glyph>
<glyph name="four" format="1">
  <advance width="686"/>
  <unicode hex="0034"/>
  <outline>
    <contour>
      <point x="379" y="688" type="line"/>
      <point x="25" y="246" type="line"/>
      <point x="25" y="126" type="line"/>
      <point x="661" y="126" type="line"/>
      <point x="661" y="274" type="line"/>
      <point x="211" y="274" type="line"/>
      <point x="456" y="587" type="line"/>
    </contour>
    <contour>
      <point x="379" y="688" type="line"/>
      <point x="379" y="0" type="line"/>
      <point x="544" y="0" type="line"/>
      <point x="544" y="688" type="line"/>
    </contour>
  </outline>
</glyph>
<glyph name="semicolon" format="1">
  <advance width="269"/>
  <unicode hex="003B"/>
  <outline>
    <contour>
      <point x="134" y="295" type="curve" smooth="yes"/>
      <point x="189" y="295"/>
      <point x="234" y="339"/>
      <point x="234" y="394" type="curve" smooth="yes"/>
      <point x="234" y="449"/>
      <point x="189" y="494"/>
      <point x="134" y="494" type="curve" smooth="yes"/>
      <point x="79" y="494"/>
      <point x="35" y="449"/>
      <point x="35" y="394" type="curve" smooth="yes"/>
      <point x="35" y="339"/>
      <point x="79" y="295"/>
    </contour>
    <contour>
      <point x="221" y="175" type="line"/>
      <point x="56" y="175" type="line"/>
      <point x="-4" y="-112" type="line"/>
      <point x="131" y="-112" type="line"/>
    </contour>
  </outline>
</glyph>
<glyph name="greater" format="1">
  <advance width="521"/>
  <unicode hex="003E"/>
  <outline>
    <contour>
      <point x="30" y="242" type="line"/>
      <point x="30" y="86" type="line"/>
      <point x="491" y="274" type="line"/>
      <point x="491" y="416" type="line"/>
      <point x="30" y="603" type="line"/>
      <point x="30" y="447" type="line"/>
      <point x="331" y="341" type="line"/>
      <point x="331" y="348" type="line"/>
    </contour>
  </outline>
</glyph>
<glyph name="at" format="1">
  <advance width="758"/>
  <unicode hex="0040"/>
  <outline>
    <contour>
      <point x="584" y="260" type="line"/>
      <point x="564" y="248"/>
      <point x="515" y="238"/>
      <point x="485" y="238" type="curve" smooth="yes"/>
      <point x="456" y="238"/>
      <point x="426" y="248"/>
      <point x="426" y="275" type="curve"/>
      <point x="426" y="301"/>
      <point x="449" y="314"/>
      <point x="491" y="314" type="curve"/>
      <point x="527" y="314"/>
      <point x="573" y="302"/>
      <point x="595" y="292" type="curve"/>
      <point x="595" y="388" type="line"/>
      <point x="560" y="402"/>
      <point x="518" y="411"/>
      <point x="471" y="411" type="curve" smooth="yes"/>
      <point x="375" y="411"/>
      <point x="277" y="368"/>
      <point x="277" y="265" type="curve" smooth="yes"/>
      <point x="277" y="178"/>
      <point x="341" y="123"/>
      <point x="435" y="123" type="curve"/>
      <point x="511" y="123"/>
      <point x="570" y="159"/>
      <point x="594" y="185" type="curve"/>
    </contour>
    <contour>
      <point x="627" y="71" type="line"/>
      <point x="572" y="42"/>
      <point x="511" y="27"/>
      <point x="444" y="27" type="curve" smooth="yes"/>
      <point x="302" y="27"/>
      <point x="180" y="96"/>
      <point x="180" y="269" type="curve"/>
      <point x="180" y="436"/>
      <point x="304" y="496"/>
      <point x="419" y="496" type="curve"/>
      <point x="509" y="496"/>
      <point x="578" y="453"/>
      <point x="578" y="371" type="curve" smooth="yes"/>
      <point x="578" y="210" type="line"/>
      <point x="588" y="203" type="line"/>
      <point x="588" y="132" type="line"/>
      <point x="728" y="132" type="line"/>
      <point x="728" y="342" type="line"/>
      <point x="728" y="540"/>
      <point x="602" y="642"/>
      <point x="418" y="642" type="curve"/>
      <point x="222" y="642"/>
      <point x="30" y="513"/>
      <point x="30" y="269" type="curve" smooth="yes"/>
      <point x="30" y="11"/>
      <point x="212" y="-113"/>
      <point x="444" y="-113" type="curve" smooth="yes"/>
      <point x="510" y="-113"/>
      <point x="572" y="-99"/>
      <point x="627" y="-74" type="curve"/>
    </contour>
  </outline>
</glyph>
<glyph name="D" format="1">
  <advance width="725"/>
  <unicode hex="0044"/>
  <outline>
    <contour>
      <point x="60" y="688" type="line"/>
      <point x="60" y="0" type="line"/>
      <point x="230" y="0" type="line"/>
      <point x="230" y="688" type="line"/>
    </contour>
    <contour>
      <point x="190" y="160" type="line"/>
      <point x="190" y="0" type="line"/>
      <point x="340" y="0" type="line"/>
      <point x="544" y="0"/>
      <point x="695" y="142"/>
      <point x="695" y="343" type="curve" smooth="yes"/>
      <point x="695" y="546"/>
      <point x="544" y="688"/>
      <point x="340" y="688" type="curve"/>
      <point x="190" y="688" type="line"/>
      <point x="190" y="528" type="line"/>
      <point x="340" y="528" type="line"/>
      <point x="446" y="528"/>
      <point x="525" y="457"/>
      <point x="525" y="343" type="curve" smooth="yes"/>
      <point x="525" y="230"/>
      <point x="446" y="160"/>
      <point x="340" y="160" type="curve"/>
    </contour>
    <contour>
      <point x="337" y="344" type="move" name="center"/>
    </contour>
  </outline>
</glyph>
<glyph name="E" format="1">
  <advance width="641"/>
  <unicode hex="0045"/>
  <outline>
    <contour>
      <point x="60" y="688" type="line"/>
      <point x="60" y="0" type="line"/>
      <point x="230" y="0" type="line"/>
      <point x="230" y="688" type="line"/>
    </contour>
    <contour>
      <point x="93" y="528" type="line"/>
      <point x="606" y="528" type="line"/>
      <point x="606" y="688" type="line"/>
      <point x="93" y="688" type="line"/>
    </contour>
    <contour>
      <point x="93" y="0" type="line"/>
      <point x="606" y="0" type="line"/>
      <point x="606" y="160" type="line"/>
      <point x="93" y="160" type="line"/>
    </contour>
    <contour>
      <point x="93" y="266" type="line"/>
      <point x="556" y="266" type="line"/>
      <point x="556" y="426" type="line"/>
      <point x="93" y="426" type="line"/>
    </contour>
  </outline>
</glyph>
<glyph name="F" format="1">
  <advance width="621"/>
  <unicode hex="0046"/>
  <outline>
    <contour>
      <point x="60" y="688" type="line"/>
      <point x="60" y="0" type="line"/>
      <point x="230" y="0" type="line"/>
      <point x="230" y="688" type="line"/>
    </contour>
    <contour>
      <point x="93" y="528" type="line"/>
      <point x="596" y="528" type="line"/>
      <point x="596" y="688" type="line"/>
      <point x="93" y="688" type="line"/>
    </contour>
    <contour>
      <point x="93" y="249" type="line"/>
      <point x="546" y="249" type="line"/>
      <point x="546" y="409" type="line"/>
      <point x="93" y="409" type="line"/>
    </contour>
  </outline>
</glyph>
<glyph name="J" format="1">
  <advance width="546"/>
  <unicode hex="004A"/>
  <outline>
    <contour>
      <point x="10" y="236" type="line"/>
      <point x="77" y="177"/>
      <point x="157" y="148"/>
      <point x="226" y="148" type="curve"/>
      <point x="282" y="148"/>
      <point x="321" y="171"/>
      <point x="321" y="236" type="curve"/>
      <point x="321" y="688" type="line"/>
      <point x="491" y="688" type="line"/>
      <point x="491" y="230" type="line"/>
      <point x="491" y="89"/>
      <point x="403" y="-12"/>
      <point x="230" y="-12" type="curve"/>
      <point x="119" y="-12"/>
      <point x="53" y="31"/>
      <point x="10" y="61" type="curve"/>
    </contour>
  </outline>
</glyph>
<glyph name="M" format="1">
  <advance width="950"/>
  <unicode hex="004D"/>
  <outline>
    <contour>
      <point x="380" y="0" type="line"/>
      <point x="570" y="0" type="line"/>
      <point x="720" y="417" type="line"/>
      <point x="720" y="0" type="line"/>
      <point x="890" y="0" type="line"/>
      <point x="890" y="688" type="line"/>
      <point x="656" y="688" type="line"/>
      <point x="475" y="162" type="line"/>
      <point x="294" y="688" type="line"/>
      <point x="60" y="688" type="line"/>
      <point x="60" y="0" type="line"/>
      <point x="230" y="0" type="line"/>
      <point x="230" y="417" type="line"/>
    </contour>
  </outline>
</glyph>
<glyph name="Q" format="1">
  <advance width="771"/>
  <unicode hex="0051"/>
  <outline>
    <contour>
      <point x="386" y="-10" type="curve" smooth="yes"/>
      <point x="590" y="-10"/>
      <point x="741" y="136"/>
      <point x="741" y="343" type="curve" smooth="yes"/>
      <point x="741" y="552"/>
      <point x="590" y="698"/>
      <point x="386" y="698" type="curve" smooth="yes"/>
      <point x="181" y="698"/>
      <point x="30" y="552"/>
      <point x="30" y="343" type="curve" smooth="yes"/>
      <point x="30" y="136"/>
      <point x="181" y="-10"/>
    </contour>
    <contour>
      <point x="386" y="160" type="curve" smooth="yes"/>
      <point x="286" y="160"/>
      <point x="210" y="230"/>
      <point x="210" y="343" type="curve"/>
      <point x="210" y="457"/>
      <point x="285" y="528"/>
      <point x="386" y="528" type="curve" smooth="yes"/>
      <point x="486" y="528"/>
      <point x="561" y="457"/>
      <point x="561" y="343" type="curve" smooth="yes"/>
      <point x="561" y="230"/>
      <point x="486" y="160"/>
    </contour>
    <contour>
      <point x="292" y="324" type="line"/>
      <point x="609" y="0" type="line"/>
      <point x="799" y="0" type="line"/>
      <point x="482" y="324" type="line"/>
    </contour>
  </outline>
</glyph>
<glyph name="V" format="1">
  <advance width="761"/>
  <unicode hex="0056"/>
  <outline>
    <contour>
      <point x="274" y="0" type="line"/>
      <point x="485" y="0" type="line"/>
      <point x="756" y="688" type="line"/>
      <point x="558" y="688" type="line"/>
      <point x="381" y="171" type="line"/>
      <point x="206" y="688" type="line"/>
      <point x="5" y="688" type="line"/>
    </contour>
  </outline>
</glyph>
<glyph name="W" format="1">
  <advance width="1032"/>
  <unicode hex="0057"/>
  <outline>
    <contour>
      <point x="177" y="0" type="line"/>
      <point x="406" y="0" type="line"/>
      <point x="516" y="481" type="line"/>
      <point x="626" y="0" type="line"/>
      <point x="855" y="0" type="line"/>
      <point x="1017" y="688" type="line"/>
      <point x="812" y="688" type="line"/>
      <point x="738" y="177" type="line"/>
      <point x="614" y="688" type="line"/>
      <point x="419" y="688" type="line"/>
      <point x="294" y="177" type="line"/>
      <point x="220" y="688" type="line"/>
      <point x="15" y="688" type="line"/>
    </contour>
  </outline>
</glyph>
<glyph name="bracketleft" format="1">
  <advance width="341"/>
  <unicode hex="005B"/>
  <outline>
    <contour>
      <point x="70" y="-130" type="line"/>
      <point x="321" y="-130" type="line"/>
      <point x="321" y="1" type="line"/>
      <point x="220" y="1" type="line"/>
      <point x="220" y="588" type="line"/>
      <point x="321" y="588" type="line"/>
      <point x="321" y="719" type="line"/>
      <point x="70" y="719" type="line"/>
    </contour>
  </outline>
</glyph>
<glyph name="asciicircum" format="1">
  <advance width="577"/>
  <unicode hex="005E"/>
  <outline>
    <contour>
      <point x="186" y="227" type="line"/>
      <point x="292" y="528" type="line"/>
      <point x="285" y="528" type="line"/>
      <point x="391" y="227" type="line"/>
      <point x="547" y="227" type="line"/>
      <point x="360" y="688" type="line"/>
      <point x="218" y="688" type="line"/>
      <point x="30" y="227" type="line"/>
    </contour>
  </outline>
</glyph>
<glyph name="underscore" format="1">
  <advance width="455"/>
  <unicode hex="005F"/>
  <outline>
    <contour>
      <point x="0" y="-20" type="line"/>
      <point x="0" y="-20"/>
      <point x="0" y="-125"/>
      <point x="0" y="-125" type="curve"/>
      <point x="455" y="-125" type="line"/>
      <point x="455" y="-20" type="line"/>
    </contour>
  </outline>
</glyph>
<glyph name="a" format="1">
  <advance width="546"/>
  <unicode hex="0061"/>
  <outline>
    <contour>
      <point x="346" y="135" type="line"/>
      <point x="321" y="120"/>
      <point x="272" y="110"/>
      <point x="233" y="110" type="curve" smooth="yes"/>
      <point x="197" y="110"/>
      <point x="172" y="121"/>
      <point x="172" y="151" type="curve"/>
      <point x="172" y="184"/>
      <point x="212" y="198"/>
      <point x="271" y="198" type="curve"/>
      <point x="301" y="198"/>
      <point x="336" y="192"/>
      <point x="358" y="184" type="curve"/>
      <point x="352" y="278" type="line"/>
      <point x="333" y="289"/>
      <point x="293" y="303"/>
      <point x="236" y="303" type="curve"/>
      <point x="121" y="303"/>
      <point x="25" y="242"/>
      <point x="25" y="142" type="curve" smooth="yes"/>
      <point x="25" y="42"/>
      <point x="96" y="-10"/>
      <point x="201" y="-10" type="curve"/>
      <point x="276" y="-10"/>
      <point x="332" y="25"/>
      <point x="357" y="58" type="curve"/>
    </contour>
    <contour>
      <point x="339" y="293" type="curve"/>
      <point x="339" y="103" type="line"/>
      <point x="349" y="89" type="line"/>
      <point x="349" y="0" type="line"/>
      <point x="499" y="0" type="line"/>
      <point x="499" y="302" type="line"/>
      <point x="499" y="473"/>
      <point x="393" y="540"/>
      <point x="261" y="540" type="curve" smooth="yes"/>
      <point x="159" y="540"/>
      <point x="72" y="498"/>
      <point x="36" y="464" type="curve"/>
      <point x="36" y="301" type="line"/>
      <point x="82" y="345"/>
      <point x="164" y="380"/>
      <point x="238" y="380" type="curve" smooth="yes"/>
      <point x="297" y="380"/>
      <point x="339" y="353"/>
    </contour>
  </outline>
</glyph>
<glyph name="e" format="1">
  <advance width="565"/>
  <unicode hex="0065"/>
  <outline>
    <contour>
      <point x="192" y="307" type="line" smooth="yes"/>
      <point x="192" y="360"/>
      <point x="218" y="406"/>
      <point x="284" y="406" type="curve"/>
      <point x="349" y="406"/>
      <point x="373" y="368"/>
      <point x="373" y="322" type="curve"/>
      <point x="186" y="322" type="line"/>
      <point x="186" y="222" type="line"/>
      <point x="530" y="222" type="line"/>
      <point x="530" y="295" type="line"/>
      <point x="530" y="446"/>
      <point x="444" y="540"/>
      <point x="294" y="540" type="curve" smooth="yes"/>
      <point x="134" y="540"/>
      <point x="30" y="430"/>
      <point x="30" y="265" type="curve"/>
      <point x="30" y="90"/>
      <point x="144" y="-10"/>
      <point x="318" y="-10" type="curve"/>
      <point x="405" y="-10"/>
      <point x="489" y="17"/>
      <point x="525" y="47" type="curve"/>
      <point x="525" y="185" type="line"/>
      <point x="482" y="165"/>
      <point x="415" y="140"/>
      <point x="337" y="140" type="curve" smooth="yes"/>
      <point x="226" y="140"/>
      <point x="192" y="178"/>
      <point x="192" y="251" type="curve" smooth="yes"/>
    </contour>
  </outline>
</glyph>
<glyph name="f" format="1">
  <advance width="397"/>
  <unicode hex="0066"/>
  <outline>
    <contour>
      <point x="407" y="683" type="line"/>
      <point x="389" y="694"/>
      <point x="349" y="710"/>
      <point x="295" y="710" type="curve" smooth="yes"/>
      <point x="169" y="710"/>
      <point x="80" y="642"/>
      <point x="80" y="510" type="curve"/>
      <point x="80" y="0" type="line"/>
      <point x="240" y="0" type="line"/>
      <point x="240" y="510" type="line"/>
      <point x="240" y="561"/>
      <point x="277" y="581"/>
      <point x="317" y="581" type="curve" smooth="yes"/>
      <point x="352" y="581"/>
      <point x="390" y="568"/>
      <point x="407" y="555" type="curve"/>
    </contour>
    <contour>
      <point x="10" y="390" type="line"/>
      <point x="365" y="390" type="line"/>
      <point x="365" y="530" type="line"/>
      <point x="10" y="530" type="line"/>
    </contour>
  </outline>
</glyph>
<glyph name="i" format="1">
  <advance width="271"/>
  <unicode hex="0069"/>
  <outline>
    <contour>
      <point x="55" y="530" type="line"/>
      <point x="55" y="0" type="line"/>
      <point x="215" y="0" type="line"/>
      <point x="215" y="530" type="line"/>
    </contour>
    <contour>
      <point x="136" y="579" type="curve"/>
      <point x="203" y="579"/>
      <point x="241" y="609"/>
      <point x="241" y="660" type="curve"/>
      <point x="241" y="711"/>
      <point x="203" y="740"/>
      <point x="136" y="740" type="curve"/>
      <point x="70" y="740"/>
      <point x="30" y="711"/>
      <point x="30" y="660" type="curve"/>
      <point x="30" y="609"/>
      <point x="70" y="579"/>
    </contour>
  </outline>
</glyph>
<glyph name="m" format="1">
  <advance width="937"/>
  <unicode hex="006D"/>
  <outline>
    <contour>
      <point x="50" y="530" type="line"/>
      <point x="50" y="0" type="line"/>
      <point x="210" y="0" type="line"/>
      <point x="210" y="397" type="line"/>
      <point x="200" y="415" type="line"/>
      <point x="200" y="530" type="line"/>
    </contour>
    <contour>
      <point x="309" y="385" type="curve"/>
      <point x="370" y="385"/>
      <point x="390" y="349"/>
      <point x="390" y="297" type="curve"/>
      <point x="390" y="0" type="line"/>
      <point x="550" y="0" type="line"/>
      <point x="550" y="340" type="line"/>
      <point x="550" y="456"/>
      <point x="506" y="540"/>
      <point x="382" y="540" type="curve"/>
      <point x="294" y="540"/>
      <point x="224" y="495"/>
      <point x="185" y="452" type="curve"/>
      <point x="185" y="352" type="line"/>
      <point x="211" y="367"/>
      <point x="259" y="385"/>
    </contour>
    <contour>
      <point x="649" y="385" type="curve"/>
      <point x="710" y="385"/>
      <point x="730" y="349"/>
      <point x="730" y="297" type="curve"/>
      <point x="730" y="0" type="line"/>
      <point x="890" y="0" type="line"/>
      <point x="890" y="340" type="line"/>
      <point x="890" y="456"/>
      <point x="846" y="540"/>
      <point x="722" y="540" type="curve"/>
      <point x="634" y="540"/>
      <point x="564" y="495"/>
      <point x="525" y="452" type="curve"/>
      <point x="525" y="352" type="line"/>
      <point x="551" y="367"/>
      <point x="599" y="385"/>
    </contour>
  </outline>
</glyph>
<glyph name="t" format="1">
  <advance width="442"/>
  <unicode hex="0074"/>
  <outline>
    <contour>
      <point x="417" y="21" type="curve"/>
      <point x="417" y="154" type="line"/>
      <point x="395" y="144"/>
      <point x="355" y="134"/>
      <point x="315" y="134" type="curve" smooth="yes"/>
      <point x="276" y="134"/>
      <point x="250" y="146"/>
      <point x="250" y="193" type="curve"/>
      <point x="250" y="390" type="line"/>
      <point x="417" y="390" type="line"/>
      <point x="417" y="530" type="line"/>
      <point x="250" y="530" type="line"/>
      <point x="250" y="629" type="line"/>
      <point x="215" y="629" type="line"/>
      <point x="10" y="429" type="line"/>
      <point x="10" y="390" type="line"/>
      <point x="90" y="390" type="line"/>
      <point x="90" y="170" type="line"/>
      <point x="90" y="29"/>
      <point x="166" y="-11"/>
      <point x="269" y="-11" type="curve" smooth="yes"/>
      <point x="335" y="-11"/>
      <point x="384" y="3"/>
    </contour>
  </outline>
</glyph>
<glyph name="y" format="1">
  <advance width="596"/>
  <unicode hex="0079"/>
  <outline>
    <contour>
      <point x="168" y="-168" type="curve" smooth="yes"/>
      <point x="250" y="-168"/>
      <point x="328" y="-127"/>
      <point x="377" y="-15" type="curve" smooth="yes"/>
      <point x="614" y="530" type="line"/>
      <point x="436" y="530" type="line"/>
      <point x="276" y="98" type="line"/>
      <point x="330" y="175" type="line"/>
      <point x="184" y="530" type="line"/>
      <point x="5" y="530" type="line"/>
      <point x="244" y="28" type="line"/>
      <point x="237" y="15" type="line" smooth="yes"/>
      <point x="224" y="-8"/>
      <point x="195" y="-22"/>
      <point x="159" y="-22" type="curve"/>
      <point x="90" y="-22"/>
      <point x="41" y="15"/>
      <point x="20" y="33" type="curve"/>
      <point x="20" y="-116" type="line"/>
      <point x="50" y="-140"/>
      <point x="101" y="-168"/>
    </contour>
  </outline>
</glyph>
<glyph name="z" format="1">
  <advance width="565"/>
  <unicode hex="007A"/>
  <outline>
    <contour>
      <point x="530" y="0" type="line"/>
      <point x="530" y="150" type="line"/>
      <point x="257" y="150" type="line"/>
      <point x="510" y="410" type="line"/>
      <point x="510" y="530" type="line"/>
      <point x="55" y="530" type="line"/>
      <point x="55" y="380" type="line"/>
      <point x="285" y="380" type="line"/>
      <point x="35" y="120" type="line"/>
      <point x="35" y="0" type="line"/>
    </contour>
    <contour>
      <point x="300" y="265" type="move" name="center"/>
    </contour>
  </outline>
</glyph>
<glyph name="bar" format="1">
  <advance width="295"/>
  <unicode hex="007C"/>
  <outline>
    <contour>
      <point x="225" y="-158" type="line"/>
      <point x="225" y="688" type="line"/>
      <point x="70" y="688" type="line"/>
      <point x="70" y="-158" type="line"/>
    </contour>
  </outline>
</glyph>
<glyph name="asciitilde" format="1">
  <advance width="521"/>
  <unicode hex="007E"/>
  <outline>
    <contour>
      <point x="30" y="251" type="line"/>
      <point x="56" y="297"/>
      <point x="88" y="318"/>
      <point x="130" y="318" type="curve" smooth="yes"/>
      <point x="220" y="318"/>
      <point x="285" y="226"/>
      <point x="375" y="226" type="curve" smooth="yes"/>
      <point x="421" y="226"/>
      <point x="459" y="244"/>
      <point x="491" y="286" type="curve"/>
      <point x="491" y="431" type="line"/>
      <point x="457" y="386"/>
      <point x="432" y="371"/>
      <point x="393" y="371" type="curve" smooth="yes"/>
      <point x="303" y="371"/>
      <point x="242" y="463"/>
      <point x="149" y="463" type="curve"/>
      <point x="101" y="463"/>
      <point x="61" y="439"/>
      <point x="30" y="396" type="curve"/>
    </contour>
  </outline>
</glyph>
<glyph name="cent" format="1">
  <advance width="500"/>
  <unicode hex="00A2"/>
  <outline>
    <contour>
      <point x="313" y="-10" type="curve"/>
      <point x="383" y="-10"/>
      <point x="445" y="11"/>
      <point x="494" y="47" type="curve"/>
      <point x="494" y="196" type="line"/>
      <point x="442" y="160"/>
      <point x="382" y="140"/>
      <point x="320" y="140" type="curve"/>
      <point x="240" y="140"/>
      <point x="190" y="191"/>
      <point x="190" y="265" type="curve" smooth="yes"/>
      <point x="190" y="342"/>
      <point x="240" y="390"/>
      <point x="321" y="390" type="curve"/>
      <point x="382" y="390"/>
      <point x="442" y="370"/>
      <point x="494" y="334" type="curve"/>
      <point x="494" y="483" type="line"/>
      <point x="445" y="519"/>
      <point x="384" y="540"/>
      <point x="315" y="540" type="curve"/>
      <point x="152" y="540"/>
      <point x="30" y="426"/>
      <point x="30" y="265" type="curve" smooth="yes"/>
      <point x="30" y="109"/>
      <point x="150" y="-10"/>
    </contour>
    <contour>
      <point x="389" y="-100" type="line"/>
      <point x="389" y="80" type="line"/>
      <point x="244" y="80" type="line"/>
      <point x="244" y="-100" type="line"/>
    </contour>
    <contour>
      <point x="389" y="450" type="line"/>
      <point x="389" y="630" type="line"/>
      <point x="244" y="630" type="line"/>
      <point x="244" y="450" type="line"/>
    </contour>
  </outline>
</glyph>
<glyph name="sterling" format="1">
  <advance width="615"/>
  <unicode hex="00A3"/>
  <outline>
    <contour>
      <point x="575" y="0" type="line"/>
      <point x="575" y="160" type="line"/>
      <point x="276" y="160" type="line"/>
      <point x="293" y="188"/>
      <point x="302" y="215"/>
      <point x="302" y="253" type="curve" smooth="yes"/>
      <point x="302" y="322"/>
      <point x="263" y="398"/>
      <point x="263" y="465" type="curve"/>
      <point x="263" y="513"/>
      <point x="292" y="535"/>
      <point x="338" y="535" type="curve"/>
      <point x="417" y="535"/>
      <point x="499" y="491"/>
      <point x="563" y="444" type="curve"/>
      <point x="563" y="625" type="line"/>
      <point x="513" y="657"/>
      <point x="425" y="698"/>
      <point x="319" y="698" type="curve"/>
      <point x="172" y="698"/>
      <point x="80" y="610"/>
      <point x="80" y="488" type="curve"/>
      <point x="80" y="382"/>
      <point x="140" y="298"/>
      <point x="140" y="237" type="curve"/>
      <point x="140" y="191"/>
      <point x="101" y="151"/>
      <point x="51" y="126" type="curve"/>
      <point x="51" y="0" type="line"/>
    </contour>
    <contour>
      <point x="20" y="286" type="line"/>
      <point x="479" y="286" type="line"/>
      <point x="479" y="401" type="line"/>
      <point x="20" y="401" type="line"/>
    </contour>
  </outline>
</glyph>
<glyph name="yen" format="1">
  <advance width="715"/>
  <unicode hex="00A5"/>
  <outline>
    <contour>
      <point x="443" y="321" type="line"/>
      <point x="715" y="688" type="line"/>
      <point x="509" y="688" type="line"/>
      <point x="360" y="448" type="line"/>
      <point x="208" y="688" type="line"/>
      <point x="0" y="688" type="line"/>
      <point x="273" y="319" type="line"/>
      <point x="273" y="0" type="line"/>
      <point x="443" y="0" type="line"/>
    </contour>
    <contour>
      <point x="29" y="83" type="line"/>
      <point x="685" y="83" type="line"/>
      <point x="685" y="198" type="line"/>
      <point x="29" y="198" type="line"/>
    </contour>
    <contour>
      <point x="29" y="239" type="line"/>
      <point x="685" y="239" type="line"/>
      <point x="685" y="354" type="line"/>
      <point x="29" y="354" type="line"/>
    </contour>
  </outline>
</glyph>
<glyph name="guillemotleft" format="1">
  <advance width="607"/>
  <unicode hex="00AB"/>
  <outline>
    <contour>
      <point x="30" y="198" type="line"/>
      <point x="30" y="333" type="line"/>
      <point x="285" y="473" type="line"/>
      <point x="285" y="328" type="line"/>
      <point x="152" y="266" type="line"/>
      <point x="285" y="203" type="line"/>
      <point x="285" y="58" type="line"/>
    </contour>
    <contour>
      <point x="312" y="198" type="line"/>
      <point x="312" y="333" type="line"/>
      <point x="567" y="473" type="line"/>
      <point x="567" y="328" type="line"/>
      <point x="434" y="266" type="line"/>
      <point x="567" y="203" type="line"/>
      <point x="567" y="58" type="line"/>
    </contour>
  </outline>
</glyph>
<glyph name="registered" format="1">
  <advance width="448"/>
  <unicode hex="00AE"/>
  <outline>
    <contour>
      <point x="224" y="414" type="curve" smooth="yes"/>
      <point x="304" y="414"/>
      <point x="357" y="461"/>
      <point x="357" y="548" type="curve" smooth="yes"/>
      <point x="357" y="636"/>
      <point x="304" y="683"/>
      <point x="224" y="683" type="curve" smooth="yes"/>
      <point x="147" y="683"/>
      <point x="92" y="636"/>
      <point x="92" y="548" type="curve" smooth="yes"/>
      <point x="92" y="461"/>
      <point x="147" y="414"/>
    </contour>
    <contour>
      <point x="224" y="364" type="curve" smooth="yes"/>
      <point x="123" y="364"/>
      <point x="40" y="437"/>
      <point x="40" y="548" type="curve" smooth="yes"/>
      <point x="40" y="660"/>
      <point x="123" y="732"/>
      <point x="224" y="732" type="curve" smooth="yes"/>
      <point x="326" y="732"/>
      <point x="408" y="660"/>
      <point x="408" y="548" type="curve" smooth="yes"/>
      <point x="408" y="437"/>
      <point x="326" y="364"/>
    </contour>
    <contour>
      <point x="205" y="627" type="line"/>
      <point x="158" y="627" type="line"/>
      <point x="158" y="477" type="line"/>
      <point x="205" y="477" type="line"/>
    </contour>
    <contour>
      <point x="299" y="576" type="curve"/>
      <point x="299" y="611"/>
      <point x="273" y="627"/>
      <point x="235" y="627" type="curve"/>
      <point x="196" y="627" type="line"/>
      <point x="196" y="588" type="line"/>
      <point x="229" y="588" type="line"/>
      <point x="243" y="588"/>
      <point x="251" y="584"/>
      <point x="251" y="574" type="curve"/>
      <point x="251" y="565"/>
      <point x="243" y="561"/>
      <point x="229" y="561" type="curve"/>
      <point x="196" y="561" type="line"/>
      <point x="196" y="527" type="line"/>
      <point x="233" y="527" type="line"/>
      <point x="270" y="527"/>
      <point x="299" y="542"/>
    </contour>
    <contour>
      <point x="212" y="537" type="line"/>
      <point x="247" y="477" type="line"/>
      <point x="301" y="477" type="line"/>
      <point x="257" y="540" type="line"/>
    </contour>
  </outline>
</glyph>
<glyph name="macron" format="1">
  <advance width="375"/>
  <unicode hex="00AF"/>
  <outline>
    <contour>
      <point x="30" y="736" type="line"/>
      <point x="30" y="736"/>
      <point x="30" y="621"/>
      <point x="30" y="621" type="curve"/>
      <point x="345" y="621" type="line"/>
      <point x="345" y="736" type="line"/>
    </contour>
  </outline>
</glyph>
<glyph name="degree" format="1">
  <advance width="378"/>
  <unicode hex="00B0"/>
  <outline>
    <contour>
      <point x="189" y="484" type="curve" smooth="yes"/>
      <point x="225" y="485"/>
      <point x="247" y="507"/>
      <point x="247" y="547" type="curve" smooth="yes"/>
      <point x="247" y="589"/>
      <point x="225" y="611"/>
      <point x="189" y="611" type="curve" smooth="yes"/>
      <point x="154" y="611"/>
      <point x="131" y="589"/>
      <point x="131" y="547" type="curve" smooth="yes"/>
      <point x="131" y="507"/>
      <point x="154" y="484"/>
    </contour>
    <contour>
      <point x="189" y="397" type="curve" smooth="yes"/>
      <point x="102" y="397"/>
      <point x="40" y="453"/>
      <point x="40" y="547" type="curve"/>
      <point x="40" y="643"/>
      <point x="102" y="698"/>
      <point x="189" y="698" type="curve" smooth="yes"/>
      <point x="277" y="698"/>
      <point x="338" y="643"/>
      <point x="338" y="547" type="curve" smooth="yes"/>
      <point x="338" y="453"/>
      <point x="277" y="397"/>
    </contour>
  </outline>
</glyph>
<glyph name="onesuperior" format="1">
  <advance width="258"/>
  <unicode hex="00B9"/>
  <outline>
    <contour>
      <point x="228" y="321" type="line"/>
      <point x="228" y="641" type="line"/>
      <point x="72" y="641" type="line"/>
      <point x="30" y="531" type="line"/>
      <point x="116" y="531" type="line"/>
      <point x="116" y="321" type="line"/>
    </contour>
  </outline>
</glyph>
<glyph name="ordmasculine" format="1">
  <advance width="288"/>
  <unicode hex="00BA"/>
  <outline>
    <contour>
      <point x="144" y="478" type="curve" smooth="yes"/>
      <point x="79" y="478"/>
      <point x="30" y="526"/>
      <point x="30" y="588" type="curve" smooth="yes"/>
      <point x="30" y="652"/>
      <point x="79" y="698"/>
      <point x="144" y="698" type="curve" smooth="yes"/>
      <point x="210" y="698"/>
      <point x="258" y="652"/>
      <point x="258" y="588" type="curve" smooth="yes"/>
      <point x="258" y="526"/>
      <point x="210" y="478"/>
    </contour>
    <contour>
      <point x="144" y="548" type="curve" smooth="yes"/>
      <point x="166" y="548"/>
      <point x="184" y="564"/>
      <point x="184" y="588" type="curve" smooth="yes"/>
      <point x="184" y="613"/>
      <point x="166" y="628"/>
      <point x="144" y="628" type="curve" smooth="yes"/>
      <point x="122" y="628"/>
      <point x="104" y="613"/>
      <point x="104" y="588" type="curve" smooth="yes"/>
      <point x="104" y="564"/>
      <point x="122" y="548"/>
    </contour>
  </outline>
</glyph>
<glyph name="questiondown" format="1">
  <advance width="500"/>
  <unicode hex="00BF"/>
  <outline>
    <contour>
      <point x="276" y="545" type="curve" smooth="yes"/>
      <point x="221" y="545"/>
      <point x="176" y="501"/>
      <point x="176" y="446" type="curve" smooth="yes"/>
      <point x="176" y="391"/>
      <point x="221" y="346"/>
      <point x="276" y="346" type="curve" smooth="yes"/>
      <point x="331" y="346"/>
      <point x="375" y="391"/>
      <point x="375" y="446" type="curve" smooth="yes"/>
      <point x="375" y="501"/>
      <point x="331" y="545"/>
    </contour>
    <contour>
      <point x="227" y="-168" type="curve"/>
      <point x="351" y="-168"/>
      <point x="441" y="-117"/>
      <point x="485" y="-85" type="curve"/>
      <point x="485" y="96" type="line"/>
      <point x="425" y="47"/>
      <point x="325" y="-5"/>
      <point x="254" y="-5" type="curve"/>
      <point x="220" y="-5"/>
      <point x="197" y="5"/>
      <point x="197" y="30" type="curve"/>
      <point x="197" y="51"/>
      <point x="215" y="69"/>
      <point x="240" y="93" type="curve" smooth="yes"/>
      <point x="346" y="194" type="line"/>
      <point x="346" y="286" type="line"/>
      <point x="211" y="286" type="line"/>
      <point x="211" y="237" type="line"/>
      <point x="92" y="138" type="line" smooth="yes"/>
      <point x="49" y="102"/>
      <point x="20" y="59"/>
      <point x="20" y="2" type="curve"/>
      <point x="20" y="-102"/>
      <point x="99" y="-168"/>
    </contour>
  </outline>
</glyph>
<glyph name="Oslash" format="1">
  <advance width="872"/>
  <unicode hex="00D8"/>
  <outline>
    <contour>
      <point x="436" y="-10" type="curve" smooth="yes"/>
      <point x="231" y="-10"/>
      <point x="80" y="136"/>
      <point x="80" y="343" type="curve" smooth="yes"/>
      <point x="80" y="552"/>
      <point x="231" y="698"/>
      <point x="436" y="698" type="curve" smooth="yes"/>
      <point x="640" y="698"/>
      <point x="791" y="552"/>
      <point x="791" y="343" type="curve" smooth="yes"/>
      <point x="791" y="136"/>
      <point x="640" y="-10"/>
    </contour>
    <contour>
      <point x="892" y="688" type="line"/>
      <point x="181" y="0" type="line"/>
      <point x="-20" y="0" type="line"/>
      <point x="691" y="688" type="line"/>
    </contour>
    <contour>
      <point x="436" y="150" type="curve" smooth="yes"/>
      <point x="542" y="150"/>
      <point x="621" y="224"/>
      <point x="621" y="343" type="curve" smooth="yes"/>
      <point x="621" y="463"/>
      <point x="542" y="538"/>
      <point x="436" y="538" type="curve" smooth="yes"/>
      <point x="329" y="538"/>
      <point x="250" y="463"/>
      <point x="250" y="343" type="curve"/>
      <point x="250" y="224"/>
      <point x="330" y="150"/>
    </contour>
  </outline>
</glyph>
<glyph name="eth" format="1">
  <advance width="641"/>
  <unicode hex="00F0"/>
  <outline>
    <contour>
      <point x="258" y="447" type="curve"/>
      <point x="117" y="447"/>
      <point x="30" y="348"/>
      <point x="30" y="233" type="curve" smooth="yes"/>
      <point x="30" y="84"/>
      <point x="141" y="-10"/>
      <point x="316" y="-10" type="curve" smooth="yes"/>
      <point x="499" y="-10"/>
      <point x="600" y="103"/>
      <point x="600" y="267" type="curve"/>
      <point x="600" y="465"/>
      <point x="454" y="619"/>
      <point x="348" y="688" type="curve"/>
      <point x="115" y="688" type="line"/>
      <point x="196" y="633"/>
      <point x="341" y="514"/>
      <point x="410" y="396" type="curve"/>
      <point x="391" y="376" type="line"/>
      <point x="410" y="337"/>
      <point x="420" y="308"/>
      <point x="420" y="271" type="curve"/>
      <point x="420" y="196"/>
      <point x="375" y="151"/>
      <point x="309" y="151" type="curve"/>
      <point x="251" y="151"/>
      <point x="209" y="182"/>
      <point x="209" y="233" type="curve" smooth="yes"/>
      <point x="209" y="276"/>
      <point x="245" y="310"/>
      <point x="310" y="310" type="curve"/>
      <point x="371" y="310"/>
      <point x="435" y="281"/>
      <point x="467" y="250" type="curve"/>
      <point x="459" y="351" type="line"/>
      <point x="434" y="388"/>
      <point x="367" y="447"/>
    </contour>
    <contour>
      <point x="56" y="484" type="line"/>
      <point x="194" y="484" type="line"/>
      <point x="611" y="688" type="line"/>
      <point x="472" y="688" type="line"/>
    </contour>
  </outline>
</glyph>
<glyph name="Dcroat" format="1">
  <advance width="745"/>
  <unicode hex="0110"/>
  <outline>
    <contour>
      <point x="10" y="274" type="line"/>
      <point x="437" y="274" type="line"/>
      <point x="437" y="414" type="line"/>
      <point x="10" y="414" type="line"/>
    </contour>
    <contour>
      <point x="80" y="688" type="line"/>
      <point x="80" y="0" type="line"/>
      <point x="250" y="0" type="line"/>
      <point x="250" y="688" type="line"/>
    </contour>
    <contour>
      <point x="210" y="160" type="line"/>
      <point x="210" y="0" type="line"/>
      <point x="360" y="0" type="line"/>
      <point x="564" y="0"/>
      <point x="715" y="142"/>
      <point x="715" y="343" type="curve" smooth="yes"/>
      <point x="715" y="546"/>
      <point x="564" y="688"/>
      <point x="360" y="688" type="curve"/>
      <point x="210" y="688" type="line"/>
      <point x="210" y="528" type="line"/>
      <point x="360" y="528" type="line"/>
      <point x="466" y="528"/>
      <point x="545" y="457"/>
      <point x="545" y="343" type="curve" smooth="yes"/>
      <point x="545" y="230"/>
      <point x="466" y="160"/>
      <point x="360" y="160" type="curve"/>
    </contour>
  </outline>
</glyph>
<glyph name="Lslash" format="1">
  <advance width="606"/>
  <unicode hex="0141"/>
  <outline>
    <contour>
      <point x="10" y="295" type="line"/>
      <point x="382" y="410" type="line"/>
      <point x="382" y="540" type="line"/>
      <point x="10" y="425" type="line"/>
    </contour>
    <contour>
      <point x="80" y="688" type="line"/>
      <point x="80" y="0" type="line"/>
      <point x="250" y="0" type="line"/>
      <point x="250" y="688" type="line"/>
    </contour>
    <contour>
      <point x="113" y="0" type="line"/>
      <point x="586" y="0" type="line"/>
      <point x="586" y="160" type="line"/>
      <point x="113" y="160" type="line"/>
    </contour>
  </outline>
</glyph>
<glyph name="Eng" format="1">
  <advance width="717"/>
  <unicode hex="014A"/>
  <outline>
    <contour>
      <point x="657" y="57" type="curve"/>
      <point x="657" y="688" type="line"/>
      <point x="487" y="688" type="line"/>
      <point x="487" y="299" type="line"/>
      <point x="220" y="688" type="line"/>
      <point x="50" y="688" type="line"/>
      <point x="50" y="0" type="line"/>
      <point x="220" y="0" type="line"/>
      <point x="220" y="394" type="line"/>
      <point x="497" y="28" type="line"/>
      <point x="497" y="24" type="line" smooth="yes"/>
      <point x="497" y="-6"/>
      <point x="470" y="-23"/>
      <point x="402" y="-39" type="curve"/>
      <point x="441" y="-168" type="line"/>
      <point x="566" y="-156"/>
      <point x="657" y="-86"/>
    </contour>
  </outline>
</glyph>
<glyph name="oe" format="1">
  <advance width="975"/>
  <unicode hex="0153"/>
  <outline>
    <contour>
      <point x="315" y="-10" type="curve" smooth="yes"/>
      <point x="479" y="-10"/>
      <point x="601" y="109"/>
      <point x="601" y="265" type="curve" smooth="yes"/>
      <point x="601" y="426"/>
      <point x="479" y="540"/>
      <point x="315" y="540" type="curve" smooth="yes"/>
      <point x="152" y="540"/>
      <point x="30" y="426"/>
      <point x="30" y="265" type="curve" smooth="yes"/>
      <point x="30" y="109"/>
      <point x="152" y="-10"/>
    </contour>
    <contour>
      <point x="315" y="140" type="curve" smooth="yes"/>
      <point x="247" y="140"/>
      <point x="190" y="191"/>
      <point x="190" y="265" type="curve" smooth="yes"/>
      <point x="190" y="342"/>
      <point x="247" y="390"/>
      <point x="315" y="390" type="curve" smooth="yes"/>
      <point x="384" y="390"/>
      <point x="441" y="342"/>
      <point x="441" y="265" type="curve" smooth="yes"/>
      <point x="441" y="190"/>
      <point x="384" y="140"/>
    </contour>
    <contour>
      <point x="601" y="307" type="line" smooth="yes"/>
      <point x="601" y="360"/>
      <point x="627" y="406"/>
      <point x="693" y="406" type="curve"/>
      <point x="758" y="406"/>
      <point x="783" y="368"/>
      <point x="783" y="322" type="curve"/>
      <point x="596" y="322" type="line"/>
      <point x="596" y="222" type="line"/>
      <point x="940" y="222" type="line"/>
      <point x="940" y="295" type="line"/>
      <point x="940" y="446"/>
      <point x="854" y="540"/>
      <point x="704" y="540" type="curve" smooth="yes"/>
      <point x="544" y="540"/>
      <point x="440" y="430"/>
      <point x="440" y="265" type="curve"/>
      <point x="440" y="90"/>
      <point x="554" y="-10"/>
      <point x="728" y="-10" type="curve"/>
      <point x="815" y="-10"/>
      <point x="899" y="17"/>
      <point x="935" y="47" type="curve"/>
      <point x="935" y="185" type="line"/>
      <point x="892" y="165"/>
      <point x="825" y="140"/>
      <point x="747" y="140" type="curve" smooth="yes"/>
      <point x="636" y="140"/>
      <point x="601" y="178"/>
      <point x="601" y="251" type="curve" smooth="yes"/>
    </contour>
  </outline>
</glyph>
<glyph name="breve" format="1">
  <advance width="381"/>
  <unicode hex="02D8"/>
  <outline>
    <contour>
      <point x="190" y="590" type="curve" smooth="yes"/>
      <point x="283" y="590"/>
      <point x="351" y="662"/>
      <point x="351" y="756" type="curve"/>
      <point x="241" y="756" type="line"/>
      <point x="241" y="713"/>
      <point x="218" y="692"/>
      <point x="190" y="692" type="curve" smooth="yes"/>
      <point x="162" y="692"/>
      <point x="139" y="713"/>
      <point x="139" y="756" type="curve"/>
      <point x="30" y="756" type="line"/>
      <point x="30" y="662"/>
      <point x="98" y="590"/>
    </contour>
  </outline>
</glyph>
<glyph name="ring" format="1">
  <advance width="314"/>
  <unicode hex="02DA"/>
  <outline>
    <contour>
      <point x="157" y="590" type="curve" smooth="yes"/>
      <point x="229" y="590"/>
      <point x="284" y="645"/>
      <point x="284" y="713" type="curve" smooth="yes"/>
      <point x="284" y="781"/>
      <point x="229" y="836"/>
      <point x="157" y="836" type="curve" smooth="yes"/>
      <point x="85" y="836"/>
      <point x="30" y="781"/>
      <point x="30" y="713" type="curve" smooth="yes"/>
      <point x="30" y="645"/>
      <point x="85" y="590"/>
    </contour>
    <contour>
      <point x="158" y="669" type="curve" smooth="yes"/>
      <point x="135" y="669"/>
      <point x="116" y="688"/>
      <point x="116" y="713" type="curve" smooth="yes"/>
      <point x="116" y="738"/>
      <point x="135" y="757"/>
      <point x="158" y="757" type="curve" smooth="yes"/>
      <point x="181" y="757"/>
      <point x="200" y="738"/>
      <point x="200" y="713" type="curve" smooth="yes"/>
      <point x="200" y="688"/>
      <point x="181" y="669"/>
    </contour>
  </outline>
</glyph>
<glyph name="commaaccent" format="1">
  <advance width="245"/>
  <unicode hex="0326"/>
  <outline>
    <contour>
      <point x="215" y="-51" type="line"/>
      <point x="60" y="-51" type="line"/>
      <point x="30" y="-211" type="line"/>
      <point x="155" y="-211" type="line"/>
    </contour>
    <contour>
      <point x="142" y="-131" type="move" name="center"/>
    </contour>
  </outline>
</glyph>
<glyph name="emdash" format="1">
  <advance width="840"/>
  <unicode hex="2014"/>
  <outline>
    <contour>
      <point x="40" y="333" type="line"/>
      <point x="40" y="333"/>
      <point x="40" y="198"/>
      <point x="40" y="198" type="curve"/>
      <point x="800" y="198" type="line"/>
      <point x="800" y="333" type="line"/>
    </contour>
  </outline>
</glyph>
<glyph name="quotedblleft" format="1">
  <advance width="447"/>
  <unicode hex="201C"/>
  <outline>
    <contour>
      <point x="225" y="454" type="line"/>
      <point x="377" y="454" type="line"/>
      <point x="402" y="688" type="line"/>
      <point x="285" y="688" type="line"/>
    </contour>
    <contour>
      <point x="25" y="454" type="line"/>
      <point x="177" y="454" type="line"/>
      <point x="202" y="688" type="line"/>
      <point x="85" y="688" type="line"/>
    </contour>
  </outline>
</glyph>
<glyph name="quotedblright" format="1">
  <advance width="447"/>
  <unicode hex="201D"/>
  <outline>
    <contour>
      <point x="222" y="688" type="line"/>
      <point x="70" y="688" type="line"/>
      <point x="45" y="454" type="line"/>
      <point x="162" y="454" type="line"/>
    </contour>
    <contour>
      <point x="422" y="688" type="line"/>
      <point x="270" y="688" type="line"/>
      <point x="245" y="454" type="line"/>
      <point x="362" y="454" type="line"/>
    </contour>
  </outline>
</glyph>
<glyph name="quotedblbase" format="1">
  <advance width="447"/>
  <unicode hex="201E"/>
  <outline>
    <contour>
      <point x="222" y="118" type="line"/>
      <point x="70" y="118" type="line"/>
      <point x="45" y="-116" type="line"/>
      <point x="162" y="-116" type="line"/>
    </contour>
    <contour>
      <point x="422" y="118" type="line"/>
      <point x="270" y="118" type="line"/>
      <point x="245" y="-116" type="line"/>
      <point x="362" y="-116" type="line"/>
    </contour>
  </outline>
</glyph>
<glyph name="dagger" format="1">
  <advance width="415"/>
  <unicode hex="2020"/>
  <outline>
    <contour>
      <point x="287" y="0" type="line"/>
      <point x="287" y="688" type="line"/>
      <point x="127" y="688" type="line"/>
      <point x="127" y="0" type="line"/>
    </contour>
    <contour>
      <point x="30" y="390" type="line"/>
      <point x="385" y="390" type="line"/>
      <point x="385" y="530" type="line"/>
      <point x="30" y="530" type="line"/>
    </contour>
  </outline>
</glyph>
<glyph name="trademark" format="1">
  <advance width="440"/>
  <unicode hex="2122"/>
  <outline>
    <contour>
      <point x="137" y="644" type="line"/>
      <point x="187" y="644" type="line"/>
      <point x="187" y="688" type="line"/>
      <point x="40" y="688" type="line"/>
      <point x="40" y="644" type="line"/>
      <point x="90" y="644" type="line"/>
      <point x="90" y="538" type="line"/>
      <point x="137" y="538" type="line"/>
    </contour>
    <contour>
      <point x="283" y="538" type="line"/>
      <point x="330" y="538" type="line"/>
      <point x="355" y="625" type="line"/>
      <point x="355" y="538" type="line"/>
      <point x="400" y="538" type="line"/>
      <point x="400" y="688" type="line"/>
      <point x="341" y="688" type="line"/>
      <point x="307" y="588" type="line"/>
      <point x="272" y="688" type="line"/>
      <point x="213" y="688" type="line"/>
      <point x="213" y="538" type="line"/>
      <point x="258" y="538" type="line"/>
      <point x="258" y="625" type="line"/>
    </contour>
  </outline>
</glyph>
<glyph name="integral" format="1">
  <advance width="562"/>
  <unicode hex="222B"/>
  <outline>
    <contour>
      <point x="353" y="47" type="curve" smooth="yes"/>
      <point x="353" y="484" type="line" smooth="yes"/>
      <point x="353" y="526"/>
      <point x="377" y="547"/>
      <point x="413" y="547" type="curve" smooth="yes"/>
      <point x="432" y="547"/>
      <point x="453" y="541"/>
      <point x="472" y="532" type="curve"/>
      <point x="472" y="684" type="line"/>
      <point x="449" y="692"/>
      <point x="423" y="698"/>
      <point x="395" y="698" type="curve" smooth="yes"/>
      <point x="269" y="698"/>
      <point x="193" y="614"/>
      <point x="193" y="481" type="curve" smooth="yes"/>
      <point x="193" y="44" type="line" smooth="yes"/>
      <point x="193" y="2"/>
      <point x="169" y="-19"/>
      <point x="133" y="-19" type="curve" smooth="yes"/>
      <point x="114" y="-19"/>
      <point x="93" y="-13"/>
      <point x="74" y="-4" type="curve"/>
      <point x="74" y="-156" type="line"/>
      <point x="97" y="-164"/>
      <point x="123" y="-170"/>
      <point x="151" y="-170" type="curve" smooth="yes"/>
      <point x="277" y="-170"/>
      <point x="353" y="-86"/>
    </contour>
  </outline>
</glyph>
<glyph name="notequal" format="1">
  <advance width="521"/>
  <unicode hex="2260"/>
  <outline>
    <contour>
      <point x="75" y="84" type="line"/>
      <point x="186" y="84" type="line"/>
      <point x="446" y="604" type="line"/>
      <point x="446" y="604"/>
      <point x="335" y="604"/>
      <point x="335" y="604" type="curve"/>
    </contour>
    <contour>
      <point x="30" y="161" type="line"/>
      <point x="491" y="161" type="line"/>
      <point x="491" y="306" type="line"/>
      <point x="30" y="306" type="line"/>
    </contour>
    <contour>
      <point x="30" y="381" type="line"/>
      <point x="491" y="381" type="line"/>
      <point x="491" y="526" type="line"/>
      <point x="30" y="526" type="line"/>
    </contour>
  </outline>
</glyph>
<glyph name="Delta.math" format="1">
  <advance width="714"/>
  <outline>
    <contour>
      <point x="479" y="118" type="line"/>
      <point x="499" y="146" type="line"/>
      <point x="206" y="146" type="line"/>
      <point x="226" y="118" type="line"/>
      <point x="363" y="541" type="line"/>
      <point x="343" y="541" type="line"/>
    </contour>
    <contour>
      <point x="10" y="0" type="line"/>
      <point x="704" y="0" type="line"/>
      <point x="454" y="688" type="line"/>
      <point x="260" y="688" type="line"/>
    </contour>
  </outline>
</glyph>
<glyph name="acute.uc" format="1">
  <advance width="346"/>
  <outline>
    <contour>
      <point x="128" y="874" type="line"/>
      <point x="30" y="747" type="line"/>
      <point x="30" y="747"/>
      <point x="176" y="747"/>
      <point x="176" y="747" type="curve"/>
      <point x="316" y="874" type="line"/>
    </contour>
    <contour>
      <point x="113" y="811" type="move" name="center"/>
    </contour>
  </outline>
</glyph>
<glyph name="breve.uc" format="1">
  <advance width="381"/>
  <outline>
    <contour>
      <point x="190" y="738" type="curve" smooth="yes"/>
      <point x="283" y="738"/>
      <point x="351" y="797"/>
      <point x="351" y="874" type="curve"/>
      <point x="241" y="874" type="line"/>
      <point x="241" y="851"/>
      <point x="228" y="840"/>
      <point x="190" y="840" type="curve" smooth="yes"/>
      <point x="152" y="840"/>
      <point x="139" y="851"/>
      <point x="139" y="874" type="curve"/>
      <point x="30" y="874" type="line"/>
      <point x="30" y="797"/>
      <point x="98" y="738"/>
    </contour>
  </outline>
</glyph>
<glyph name="cedilla.uc" format="1">
  <advance width="263"/>
  <outline>
    <contour>
      <point x="130" y="0" type="line"/>
      <point x="30" y="-146" type="line"/>
      <point x="158" y="-196" type="line"/>
      <point x="233" y="0" type="line"/>
    </contour>
  </outline>
</glyph>
<glyph name="dotaccent.uc" format="1">
  <advance width="241"/>
  <outline>
    <contour>
      <point x="30" y="770"/>
      <point x="60" y="738"/>
      <point x="120" y="738" type="curve" smooth="yes"/>
      <point x="180" y="738"/>
      <point x="211" y="770"/>
      <point x="211" y="810" type="curve" smooth="yes"/>
      <point x="211" y="850"/>
      <point x="180" y="883"/>
      <point x="120" y="883" type="curve" smooth="yes"/>
      <point x="60" y="883"/>
      <point x="30" y="850"/>
      <point x="30" y="810" type="curve" smooth="yes"/>
    </contour>
  </outline>
</glyph>
<glyph name="f_b" format="1">
  <advance width="967"/>
  <outline>
    <contour>
      <point x="427" y="683" type="line"/>
      <point x="399" y="695"/>
      <point x="351" y="710"/>
      <point x="293" y="710" type="curve" smooth="yes"/>
      <point x="179" y="710"/>
      <point x="80" y="642"/>
      <point x="80" y="510" type="curve"/>
      <point x="80" y="0" type="line"/>
      <point x="240" y="0" type="line"/>
      <point x="240" y="510" type="line"/>
      <point x="240" y="568"/>
      <point x="274" y="586"/>
      <point x="324" y="586" type="curve" smooth="yes"/>
      <point x="361" y="586"/>
      <point x="401" y="573"/>
      <point x="427" y="559" type="curve"/>
    </contour>
    <contour>
      <point x="10" y="390" type="line"/>
      <point x="336" y="390" type="line"/>
      <point x="336" y="530" type="line"/>
      <point x="10" y="530" type="line"/>
    </contour>
    <contour>
      <point x="577" y="708" type="line"/>
      <point x="417" y="683" type="line"/>
      <point x="417" y="37" type="line"/>
      <point x="472" y="17"/>
      <point x="543" y="-10"/>
      <point x="647" y="-10" type="curve"/>
      <point x="792" y="-10"/>
      <point x="942" y="71"/>
      <point x="942" y="277" type="curve"/>
      <point x="942" y="461"/>
      <point x="835" y="540"/>
      <point x="718" y="540" type="curve" smooth="yes"/>
      <point x="648" y="540"/>
      <point x="589" y="516"/>
      <point x="552" y="487" type="curve"/>
      <point x="552" y="369" type="line"/>
      <point x="578" y="383"/>
      <point x="621" y="394"/>
      <point x="666" y="394" type="curve" smooth="yes"/>
      <point x="721" y="394"/>
      <point x="776" y="363"/>
      <point x="776" y="267" type="curve"/>
      <point x="776" y="155"/>
      <point x="711" y="133"/>
      <point x="638" y="133" type="curve" smooth="yes"/>
      <point x="603" y="133"/>
      <point x="574" y="141"/>
      <point x="552" y="149" type="curve"/>
      <point x="577" y="128" type="line"/>
    </contour>
  </outline>
</glyph>
<glyph name="four.superior" format="1">
  <advance width="356"/>
  <outline>
    <contour>
      <point x="191" y="321" type="line"/>
      <point x="289" y="321" type="line"/>
      <point x="289" y="641" type="line"/>
      <point x="187" y="641" type="line"/>
      <point x="191" y="552" type="line"/>
    </contour>
    <contour>
      <point x="95" y="438" type="line"/>
      <point x="209" y="556" type="line"/>
      <point x="187" y="641" type="line"/>
      <point x="30" y="463" type="line"/>
    </contour>
    <contour>
      <point x="30" y="463" type="line"/>
      <point x="30" y="463"/>
      <point x="30" y="381"/>
      <point x="30" y="381" type="curve"/>
      <point x="326" y="381" type="line"/>
      <point x="326" y="463" type="line"/>
    </contour>
  </outline>
</glyph>
<glyph name="ring.uc" format="1">
  <advance width="314"/>
  <outline>
    <contour>
      <point x="157" y="738" type="curve" smooth="yes"/>
      <point x="233" y="738"/>
      <point x="274" y="768"/>
      <point x="274" y="812" type="curve" smooth="yes"/>
      <point x="274" y="856"/>
      <point x="233" y="886"/>
      <point x="157" y="886" type="curve" smooth="yes"/>
      <point x="81" y="886"/>
      <point x="40" y="856"/>
      <point x="40" y="812" type="curve" smooth="yes"/>
      <point x="40" y="768"/>
      <point x="81" y="738"/>
    </contour>
    <contour>
      <point x="158" y="795" type="curve" smooth="yes"/>
      <point x="133" y="795"/>
      <point x="126" y="802"/>
      <point x="126" y="812" type="curve" smooth="yes"/>
      <point x="126" y="822"/>
      <point x="133" y="829"/>
      <point x="158" y="829" type="curve" smooth="yes"/>
      <point x="183" y="829"/>
      <point x="190" y="822"/>
      <point x="190" y="812" type="curve" smooth="yes"/>
      <point x="190" y="802"/>
      <point x="183" y="795"/>
    </contour>
  </outline>
</glyph>
<glyph name="zero.superior" format="1">
  <advance width="364"/>
  <outline>
    <contour>
      <point x="185" y="313" type="curve" smooth="yes"/>
      <point x="272" y="313"/>
      <point x="333" y="378"/>
      <point x="334" y="481" type="curve" smooth="yes"/>
      <point x="335" y="583"/>
      <point x="270" y="650"/>
      <point x="179" y="650" type="curve" smooth="yes"/>
      <point x="92" y="650"/>
      <point x="30" y="583"/>
      <point x="30" y="480" type="curve" smooth="yes"/>
      <point x="30" y="378"/>
      <point x="95" y="313"/>
    </contour>
    <contour>
      <point x="182" y="407" type="curve" smooth="yes"/>
      <point x="147" y="407"/>
      <point x="132" y="429"/>
      <point x="132" y="481" type="curve" smooth="yes"/>
      <point x="132" y="532"/>
      <point x="151" y="555"/>
      <point x="182" y="555" type="curve" smooth="yes"/>
      <point x="217" y="555"/>
      <point x="232" y="531"/>
      <point x="232" y="480" type="curve" smooth="yes"/>
      <point x="232" y="429"/>
      <point x="216" y="407"/>
    </contour>
  </outline>
</glyph>
